<?xml version="1.0" encoding="UTF-8"?>
<svg width="176px" height="160px" viewBox="0 0 176 160" version="1.1" xmlns="http://www.w3.org/2000/svg" xmlns:xlink="http://www.w3.org/1999/xlink">
    <title>atoms/img/ilustraciones/base/white/envíos_económicos</title>
    <defs>
        <path d="M18.2763493,36.6711954 C-12.1926507,55.5071954 -10.7396507,127.561195 70.7063493,156.203195 C152.151349,184.845195 201.301349,43.0371954 162.480349,11.9891954 C123.658349,-19.0588046 48.7443493,17.8361954 18.2763493,36.6711954" id="path-1"></path>
    </defs>
    <g id="UI-KIT" stroke="none" stroke-width="1" fill="none" fill-rule="evenodd">
        <g id="Correos_web_UIkit_54_Illustrations" transform="translate(-64.000000, -6552.000000)">
            <g id="Group" transform="translate(64.000000, 6544.000000)">
                <g id="Group-13" transform="translate(0.000000, 8.000000)">
                    <g id="Fill-6-+-Fill-12-Mask">
                        <mask id="mask-2" fill="white">
                            <use xlink:href="#path-1"></use>
                        </mask>
                        <use id="Mask" fill="#FFFFFF" xlink:href="#path-1"></use>
                        <path d="M150.5199,66.1356 L178.7029,66.1356 C178.7029,66.1116 178.7089,66.0856 178.7089,66.0636 C178.7089,62.9756 176.1719,60.4716 173.0399,60.4716 C172.5119,60.4716 171.9969,60.5476 171.5099,60.6836 C170.9569,56.6896 167.4819,53.6076 163.2739,53.6076 C158.6829,53.6076 154.9579,57.2796 154.9579,61.8076 C154.9579,61.8236 154.9609,61.8416 154.9609,61.8616 C152.6639,62.1196 150.8399,63.8876 150.5199,66.1356" id="Fill-6" fill="#F3F2F2" mask="url(#mask-2)"></path>
                        <path d="M16.5434,129.0526 C16.5134,128.7056 16.4944,128.3576 16.4944,128.0036 C16.4944,120.8526 22.3554,115.0516 29.5874,115.0516 C29.6514,115.0516 29.7194,115.0596 29.7874,115.0596 C30.6134,108.6976 36.1054,103.7816 42.7634,103.7816 C48.5114,103.7816 53.3884,107.4436 55.1464,112.5416 C60.2824,112.9736 64.3514,117.0856 64.6474,122.2026 C65.1774,122.1396 65.7224,122.1026 66.2674,122.1026 C71.3084,122.1026 75.6814,124.9206 77.8684,129.0526 L16.5434,129.0526 Z" id="Fill-12" fill="#F3F2F2" mask="url(#mask-2)"></path>
                    </g>
                    <polygon id="Fill-3" fill="#C4BDA4" points="51.19 49.83 135.892 49.83 135.892 46.259 51.19 46.259"></polygon>
                    <path d="M100.7563,34.6668 C100.7303,34.3668 100.7143,34.0628 100.7143,33.7568 C100.7143,27.5528 105.7983,22.5208 112.0733,22.5208 C112.1283,22.5208 112.1873,22.5258 112.2463,22.5258 C112.9633,17.0068 117.7283,12.7418 123.5043,12.7418 C128.4913,12.7418 132.7223,15.9198 134.2473,20.3428 C138.7033,20.7168 142.2333,24.2848 142.4903,28.7248 C142.9503,28.6698 143.4233,28.6378 143.8953,28.6378 C148.2693,28.6378 152.0633,31.0828 153.9613,34.6668 L100.7563,34.6668 Z" id="Fill-5" fill="#F3F2F2"></path>
                    <polygon id="Fill-7" fill="#DACC92" points="48.19 120.06 132.892 120.06 132.892 46.594 48.19 46.594"></polygon>
                    <polygon id="Fill-8" fill="#FFCD00" points="75 82 107 82 107 50 75 50"></polygon>
                    <g id="atoms/ico/24px/ico_correos" transform="translate(81.000000, 56.000000)" fill="#002E6D">
                        <path d="M13.7501667,8.08308333 L10.0001667,8.08308333 L6.25016667,8.08308333 L6.25016667,7.44975 L6.25016667,6.81641667 L10.0001667,6.81641667 L13.7501667,6.81641667 L13.7501667,7.44975 L13.7501667,8.08308333 Z M11.2501667,14.0989167 C11.2501667,13.3989167 10.6901667,12.8314167 10.0001667,12.8314167 C9.30933333,12.8314167 8.75016667,13.3989167 8.75016667,14.0989167 C8.75016667,14.7980833 9.30933333,15.3655833 10.0001667,15.3655833 C10.6901667,15.3655833 11.2501667,14.7980833 11.2501667,14.0989167 L11.2501667,14.0989167 Z M10.0001667,17.89975 C14.4085,17.89975 18.0643333,14.5964167 18.6626667,10.2980833 L17.3968333,10.2980833 C16.8043333,13.8939167 13.7168333,16.63225 10.0001667,16.63225 C8.61933333,16.63225 7.50183333,15.4980833 7.50183333,14.0989167 C7.50183333,12.69975 8.61933333,11.5664167 10.0001667,11.5664167 C11.381,11.5664167 12.5001667,12.6664167 12.5001667,14.0989167 C12.5001667,14.3780833 12.4443333,14.64225 12.3618333,14.8939167 C12.861,14.68725 13.3243333,14.4139167 13.7501667,14.0905833 C13.7501667,11.99975 12.0701667,10.2989167 10.0001667,10.2989167 C7.92933333,10.2989167 6.25016667,11.99975 6.25016667,14.0989167 C6.25016667,16.19725 7.92933333,17.89975 10.0001667,17.89975 L10.0001667,17.89975 Z M1.34933333,10.2980833 C1.746,13.0989167 3.4235,15.4764167 5.771,16.7930833 C5.28516667,16.01225 5.00016667,15.0905833 5.00016667,14.0989167 L5.00016667,14.0989167 L5.00016667,10.2980833 L1.34933333,10.2980833 Z M16.2501667,9.03141667 L20.0001667,9.03141667 C20.0001667,14.6289167 15.5226667,19.1664167 10.0001667,19.1664167 C4.47766667,19.1664167 0.000166666667,14.6289167 0.000166666667,9.03141667 L6.25016667,9.03141667 L6.25016667,10.7555833 C7.166,9.70058333 8.50433333,9.03141667 10.0001667,9.03141667 C12.3851667,9.03141667 14.3768333,10.72475 14.876,12.98975 C15.7351667,11.9055833 16.2501667,10.52975 16.2501667,9.03141667 L16.2501667,9.03141667 Z M13.1251667,2.06308333 C14.5051667,2.06308333 15.6251667,3.19725 15.6251667,4.59641667 L15.6251667,5.86391667 L14.3751667,5.86391667 L14.3751667,4.59641667 C14.3751667,3.89725 13.8151667,3.32975 13.1251667,3.32975 C13.0135,3.32975 12.9068333,3.34975 12.8035,3.37725 C13.0018333,3.74058333 13.1251667,4.15225 13.1251667,4.59641667 L13.1251667,5.86391667 L11.8751667,5.86391667 L11.8751667,4.59641667 C11.8751667,3.89725 11.3151667,3.32975 10.6251667,3.32975 L10.6251667,5.86391667 L9.37516667,5.86391667 L9.37516667,3.32975 C8.68433333,3.32975 8.12516667,3.89725 8.12516667,4.59641667 L8.12516667,5.86391667 L6.87516667,5.86391667 L6.87516667,4.59641667 C6.87516667,4.15225 6.99766667,3.74058333 7.19683333,3.37808333 C7.0935,3.34975 6.98683333,3.32975 6.87516667,3.32975 C6.18433333,3.32975 5.62516667,3.89725 5.62516667,4.59641667 L5.62516667,5.86391667 L4.37516667,5.86391667 L4.37516667,4.59641667 C4.37516667,3.19725 5.49433333,2.06308333 6.87516667,2.06308333 C7.33433333,2.06308333 7.76266667,2.19141667 8.13183333,2.41058333 C8.49933333,2.19558333 8.92016667,2.06308333 9.37516667,2.06308333 C9.58766667,2.06308333 9.79016667,2.09891667 9.98683333,2.14891667 C10.191,2.09475 10.4043333,2.06308333 10.6251667,2.06308333 C11.0826667,2.06308333 11.5051667,2.19641667 11.8743333,2.41391667 C12.2435,2.19641667 12.6676667,2.06308333 13.1251667,2.06308333 L13.1251667,2.06308333 Z M10.2726667,0.59725 L10.8618333,0.59725 L10.8618333,1.14975 L10.2726667,1.14975 L10.2726667,1.74641667 L9.72766667,1.74641667 L9.72766667,1.14975 L9.1385,1.14975 L9.1385,0.59725 L9.72766667,0.59725 L9.72766667,-0.00025 L10.2726667,-0.00025 L10.2726667,0.59725 Z" id="Fill-1"></path>
                    </g>
                    <polygon id="Fill-9" fill="#C4BDA4" points="48.312 49.871 132.892 49.871 132.892 46.3 48.312 46.3"></polygon>
                    <path d="M130.414,43.0828 L143.558,52.0878 C144.117,52.4708 144.479,53.0798 144.55,53.7538 L148.343,89.8408 C148.476,91.1098 147.555,92.2478 146.286,92.3818 L123.451,94.7808 C122.181,94.9148 121.043,93.9938 120.91,92.7238 L117.116,56.6268 C117.046,55.9588 117.27,55.2928 117.73,54.8038 L128.544,43.2858 C129.032,42.7668 129.826,42.6808 130.414,43.0828 M130.977,47.7638 C129.967,47.8698 129.234,48.7738 129.34,49.7848 C129.447,50.7948 130.352,51.5268 131.361,51.4218 C132.372,51.3148 133.104,50.4098 132.998,49.3998 C132.892,48.3908 131.987,47.6568 130.977,47.7638" id="Fill-10" fill="#002E6D"></path>
                    <path d="M127.6381,70.3729 C130.0371,70.1209 130.9711,68.4939 130.7421,66.3139 C130.5101,64.1119 129.2611,62.7359 126.8621,62.9889 C124.4871,63.2379 123.5271,64.8459 123.7591,67.0479 C123.9881,69.2269 125.2631,70.6229 127.6381,70.3729 L127.6381,70.3729 Z M129.3001,79.1039 L138.5691,61.9609 L135.5521,62.2769 L126.3071,79.4189 L129.3001,79.1039 Z M127.4301,68.3939 C126.5271,68.4879 126.1101,67.9479 126.0031,66.9249 L125.9771,66.6799 C125.8691,65.6569 126.1671,65.0629 127.0701,64.9689 C127.9961,64.8709 128.4111,65.3899 128.5181,66.4129 L128.5441,66.6569 C128.6541,67.7029 128.3561,68.2969 127.4301,68.3939 L127.4301,68.3939 Z M138.0691,78.4519 C140.4681,78.1999 141.4011,76.5729 141.1721,74.3939 C140.9411,72.1909 139.6911,70.8149 137.2921,71.0669 C134.9171,71.3169 133.9581,72.9249 134.1891,75.1269 C134.4181,77.3069 135.6941,78.7019 138.0691,78.4519 L138.0691,78.4519 Z M137.8611,76.4729 C136.9581,76.5669 136.5411,76.0259 136.4331,75.0039 L136.4081,74.7589 C136.3001,73.7349 136.5981,73.1429 137.5011,73.0479 C138.4271,72.9499 138.8421,73.4689 138.9491,74.4919 L138.9751,74.7359 C139.0851,75.7819 138.7871,76.3759 137.8611,76.4729 L137.8611,76.4729 Z" id="Fill-11" fill="#FFFFFF"></path>
                </g>
            </g>
        </g>
    </g>
</svg>