<?xml version="1.0" encoding="UTF-8"?>
<svg width="176px" height="144px" viewBox="0 0 176 144" version="1.1" xmlns="http://www.w3.org/2000/svg" xmlns:xlink="http://www.w3.org/1999/xlink">
    <title>atoms/img/ilustraciones/base/white/envíos_ligeros</title>
    <defs>
        <path d="M26.3304372,24.1131215 C42.8560768,-3.19119572 123.732769,-17.6229109 167.979063,38.3296156 C212.226358,94.2811502 60.8377994,162.357468 20.2737733,139.4389 C-20.2902528,116.521325 9.80379615,51.4164468 26.3304372,24.1131215" id="path-1"></path>
        <path d="M0.928,0.845 C0.579,1.118 2.782,7.423 2.782,7.423 L2.782,7.423 C0.415,14.1 7.653,19.605 8.002,18.893 L8.002,18.893 C8.143,18.604 7.761,15.765 7.761,15.765 L7.761,15.765 C7.761,15.765 8.848,19.151 9.554,19.57 L9.554,19.57 C13.68,22.018 19.756,19.967 22.998,17.494 L22.998,17.494 C25.803,15.354 27.396,12.104 27.852,10.699 L27.852,10.699 C28.637,8.279 26.187,4.609 26.39,5.573 L26.39,5.573 C26.594,6.538 25.177,8.011 25.177,8.011 L25.177,8.011 C25.177,8.011 23.441,7.044 20.792,8.696 L20.792,8.696 C18.143,10.348 15.826,9.943 14.279,9.467 L14.279,9.467 C12.732,8.991 11.901,7.806 11.481,7.662 L11.481,7.662 C11.06,7.52 7.965,7.322 7.965,7.322 L7.965,7.322 L10.672,6.596 C10.576,5.84 9.02,5.417 7.75,5.378 L7.75,5.378 C6.481,5.339 4.769,5.831 4.769,5.831 L4.769,5.831 C4.769,5.831 5.817,11.699 12.291,14.037 L12.291,14.037 C15.984,15.371 18.955,14.27 21.001,13.169 L21.001,13.169 C22.596,12.311 23.628,11.453 24,11.749 L24,11.749 C24.848,12.425 18.514,17.359 12.021,14.914 L12.021,14.914 C5.716,12.541 3.759,6.777 2.894,4.771 L2.894,4.771 C2.165,3.082 1.63,0.566 1.541,0.452 L1.541,0.452 C1.535,0.444 1.524,0.44 1.511,0.44 L1.511,0.44 C1.39,0.44 1.024,0.772 0.928,0.845 L0.928,0.845 Z" id="path-3"></path>
        <path d="M40.786,0.084 C40.658,0.264 40.015,4.166 39.019,6.812 L39.019,6.812 C37.834,9.952 35.24,18.941 25.732,23.037 L25.732,23.037 C15.94,27.255 5.861,20.134 7.114,19.035 L7.114,19.035 C7.65,18.565 9.234,19.742 11.647,20.919 L11.647,20.919 C14.871,22.49 19.578,24.062 25.253,21.709 L25.253,21.709 C35.027,17.656 36.215,8.572 36.215,8.572 L36.215,8.572 C36.215,8.572 33.551,7.94 31.605,8.091 L31.605,8.091 C29.659,8.241 27.301,9.001 27.207,10.172 L27.207,10.172 L31.414,11.089 C31.414,11.089 26.678,11.615 26.043,11.865 L26.043,11.865 C25.406,12.114 24.216,13.995 21.875,14.837 L21.875,14.837 C19.535,15.677 16.006,16.465 11.821,14.118 L11.821,14.118 C7.636,11.773 5.04,13.38 5.04,13.38 L5.04,13.38 C5.04,13.38 2.76,11.22 3.003,9.725 L3.003,9.725 C3.246,8.231 -0.253,14.04 1.125,17.699 L1.125,17.699 C1.926,19.824 4.606,24.7 9.063,27.782 L9.063,27.782 C14.218,31.348 23.693,34.061 29.852,30.007 L29.852,30.007 C30.906,29.313 32.333,24.037 32.333,24.037 L32.333,24.037 C32.333,24.037 31.95,28.425 32.187,28.857 L32.187,28.857 C32.773,29.925 43.491,20.956 39.379,10.873 L39.379,10.873 C39.379,10.873 42.309,1.037 41.754,0.645 L41.754,0.645 C41.604,0.538 41.028,0.062 40.836,0.062 L40.836,0.062 C40.814,0.062 40.796,0.069 40.786,0.084 L40.786,0.084 Z" id="path-5"></path>
    </defs>
    <g id="UI-KIT" stroke="none" stroke-width="1" fill="none" fill-rule="evenodd">
        <g id="Correos_web_UIkit_54_Illustrations" transform="translate(-528.000000, -6560.000000)">
            <g id="Group" transform="translate(528.000000, 6544.000000)">
                <g id="Group-24" transform="translate(0.000000, 15.000000)">
                    <g id="Group-9" transform="translate(0.000000, 0.086000)">
                        <g id="Fill-3" transform="translate(0.000000, 0.914000)">
                            <mask id="mask-2" fill="white">
                                <use xlink:href="#path-1"></use>
                            </mask>
                            <use id="Mask" fill="#FFFFFF" xlink:href="#path-1"></use>
                            <path d="M136.2163,64.0862 C136.1913,63.7982 136.1753,63.5082 136.1753,63.2142 C136.1753,57.2732 141.0463,52.4522 147.0553,52.4522 C147.1093,52.4522 147.1653,52.4582 147.2213,52.4582 C147.9083,47.1712 152.4723,43.0862 158.0043,43.0862 C162.7803,43.0862 166.8333,46.1302 168.2943,50.3662 C172.5623,50.7252 175.9433,54.1422 176.1893,58.3942 C176.6303,58.3412 177.0823,58.3112 177.5353,58.3112 C181.7253,58.3112 185.3593,60.6522 187.1753,64.0862 L136.2163,64.0862 Z" fill="#F3F2F2" mask="url(#mask-2)"></path>
                        </g>
                        <path d="M35.3091,33.9143 L62.3031,33.9143 C58.3031,33.8903 58.3091,33.8653 58.3091,33.8453 C58.3091,30.8873 55.8791,28.4883 52.8791,28.4883 C52.3731,28.4883 51.8791,28.5613 51.4131,28.6913 C50.8831,24.8653 47.5551,21.9143 43.5251,21.9143 C39.1271,21.9143 35.5601,25.4323 35.5601,29.7683 C35.5601,29.7833 35.5631,29.8013 35.5631,29.8193 C33.3631,30.0673 31.6161,31.7613 31.3091,33.9143" id="Fill-5" fill="#F3F2F2"></path>
                        <path d="M40.7505,53.3782 C42.0205,53.4172 43.5755,53.8402 43.6715,54.5972 L40.9655,55.3212 C40.9655,55.3212 44.0595,55.5202 44.4805,55.6622 C44.9015,55.8062 45.7315,56.9912 47.2785,57.4672 C48.8255,57.9422 51.1435,58.3482 53.7925,56.6962 C56.4405,55.0442 58.1765,56.0112 58.1765,56.0112 C58.1765,56.0112 59.5935,54.5382 59.3905,53.5732 C59.1875,52.6092 61.6365,56.2792 60.8515,58.6982 C60.3955,60.1052 58.8025,63.3542 55.9985,65.4932 C52.7565,67.9672 46.6805,70.0182 42.5545,67.5692 C41.8485,67.1502 40.7615,63.7652 40.7615,63.7652 C40.7615,63.7652 41.1425,66.6052 41.0015,66.8932 C40.6535,67.6052 33.4155,62.1002 35.7825,55.4232 C35.7825,55.4232 33.5795,49.1182 33.9285,48.8462 C34.0345,48.7642 34.4725,48.3642 34.5415,48.4522 C34.6295,48.5662 35.1655,51.0822 35.8935,52.7722 C36.7585,54.7772 38.7165,60.5412 45.0205,62.9142 C51.5135,65.3582 57.8475,60.4252 56.9995,59.7492 C56.1515,59.0722 51.8655,64.4102 45.2915,62.0362 C38.8165,59.6992 37.7685,53.8302 37.7685,53.8302 C37.7685,53.8302 39.4815,53.3392 40.7505,53.3782" id="Fill-7" fill="#002E6D"></path>
                    </g>
                    <g id="Group-12" transform="translate(33.000000, 48.086000)">
                        <mask id="mask-4" fill="white">
                            <use xlink:href="#path-3"></use>
                        </mask>
                        <g id="Clip-11"></g>
                        <polygon id="Fill-10" fill="#002E6D" mask="url(#mask-4)" points="36.4849 17.7659 6.5529 34.6719 -11.4931 2.7239 18.4389 -14.1821"></polygon>
                    </g>
                    <g id="Group-18" transform="translate(47.000000, 38.086000)">
                        <polygon id="Fill-13" fill="#DACC92" points="0.947 70.125 80.917 70.125 80.917 0.763 0.947 0.763"></polygon>
                        <polygon id="Fill-15" fill="#FFCD00" points="26 36 58 36 58 4 26 4"></polygon>
                        <g id="atoms/ico/24px/ico_correos" transform="translate(32.000000, 10.000000)" fill="#002E6D">
                            <path d="M13.7501667,8.08308333 L10.0001667,8.08308333 L6.25016667,8.08308333 L6.25016667,7.44975 L6.25016667,6.81641667 L10.0001667,6.81641667 L13.7501667,6.81641667 L13.7501667,7.44975 L13.7501667,8.08308333 Z M11.2501667,14.0989167 C11.2501667,13.3989167 10.6901667,12.8314167 10.0001667,12.8314167 C9.30933333,12.8314167 8.75016667,13.3989167 8.75016667,14.0989167 C8.75016667,14.7980833 9.30933333,15.3655833 10.0001667,15.3655833 C10.6901667,15.3655833 11.2501667,14.7980833 11.2501667,14.0989167 L11.2501667,14.0989167 Z M10.0001667,17.89975 C14.4085,17.89975 18.0643333,14.5964167 18.6626667,10.2980833 L17.3968333,10.2980833 C16.8043333,13.8939167 13.7168333,16.63225 10.0001667,16.63225 C8.61933333,16.63225 7.50183333,15.4980833 7.50183333,14.0989167 C7.50183333,12.69975 8.61933333,11.5664167 10.0001667,11.5664167 C11.381,11.5664167 12.5001667,12.6664167 12.5001667,14.0989167 C12.5001667,14.3780833 12.4443333,14.64225 12.3618333,14.8939167 C12.861,14.68725 13.3243333,14.4139167 13.7501667,14.0905833 C13.7501667,11.99975 12.0701667,10.2989167 10.0001667,10.2989167 C7.92933333,10.2989167 6.25016667,11.99975 6.25016667,14.0989167 C6.25016667,16.19725 7.92933333,17.89975 10.0001667,17.89975 L10.0001667,17.89975 Z M1.34933333,10.2980833 C1.746,13.0989167 3.4235,15.4764167 5.771,16.7930833 C5.28516667,16.01225 5.00016667,15.0905833 5.00016667,14.0989167 L5.00016667,14.0989167 L5.00016667,10.2980833 L1.34933333,10.2980833 Z M16.2501667,9.03141667 L20.0001667,9.03141667 C20.0001667,14.6289167 15.5226667,19.1664167 10.0001667,19.1664167 C4.47766667,19.1664167 0.000166666667,14.6289167 0.000166666667,9.03141667 L6.25016667,9.03141667 L6.25016667,10.7555833 C7.166,9.70058333 8.50433333,9.03141667 10.0001667,9.03141667 C12.3851667,9.03141667 14.3768333,10.72475 14.876,12.98975 C15.7351667,11.9055833 16.2501667,10.52975 16.2501667,9.03141667 L16.2501667,9.03141667 Z M13.1251667,2.06308333 C14.5051667,2.06308333 15.6251667,3.19725 15.6251667,4.59641667 L15.6251667,5.86391667 L14.3751667,5.86391667 L14.3751667,4.59641667 C14.3751667,3.89725 13.8151667,3.32975 13.1251667,3.32975 C13.0135,3.32975 12.9068333,3.34975 12.8035,3.37725 C13.0018333,3.74058333 13.1251667,4.15225 13.1251667,4.59641667 L13.1251667,5.86391667 L11.8751667,5.86391667 L11.8751667,4.59641667 C11.8751667,3.89725 11.3151667,3.32975 10.6251667,3.32975 L10.6251667,5.86391667 L9.37516667,5.86391667 L9.37516667,3.32975 C8.68433333,3.32975 8.12516667,3.89725 8.12516667,4.59641667 L8.12516667,5.86391667 L6.87516667,5.86391667 L6.87516667,4.59641667 C6.87516667,4.15225 6.99766667,3.74058333 7.19683333,3.37808333 C7.0935,3.34975 6.98683333,3.32975 6.87516667,3.32975 C6.18433333,3.32975 5.62516667,3.89725 5.62516667,4.59641667 L5.62516667,5.86391667 L4.37516667,5.86391667 L4.37516667,4.59641667 C4.37516667,3.19725 5.49433333,2.06308333 6.87516667,2.06308333 C7.33433333,2.06308333 7.76266667,2.19141667 8.13183333,2.41058333 C8.49933333,2.19558333 8.92016667,2.06308333 9.37516667,2.06308333 C9.58766667,2.06308333 9.79016667,2.09891667 9.98683333,2.14891667 C10.191,2.09475 10.4043333,2.06308333 10.6251667,2.06308333 C11.0826667,2.06308333 11.5051667,2.19641667 11.8743333,2.41391667 C12.2435,2.19641667 12.6676667,2.06308333 13.1251667,2.06308333 L13.1251667,2.06308333 Z M10.2726667,0.59725 L10.8618333,0.59725 L10.8618333,1.14975 L10.2726667,1.14975 L10.2726667,1.74641667 L9.72766667,1.74641667 L9.72766667,1.14975 L9.1385,1.14975 L9.1385,0.59725 L9.72766667,0.59725 L9.72766667,-0.00025 L10.2726667,-0.00025 L10.2726667,0.59725 Z" id="Fill-1"></path>
                        </g>
                        <polygon id="Fill-16" fill="#C4BDA4" points="1.062 3.857 80.917 3.857 80.917 0.485 1.062 0.485"></polygon>
                        <path d="M90.605,39.091 C88.659,39.241 86.301,40.001 86.207,41.172 L90.414,42.089 C90.414,42.089 85.678,42.615 85.043,42.864 C84.406,43.114 83.216,44.995 80.875,45.836 C78.535,46.677 75.006,47.465 70.821,45.118 C66.636,42.773 64.04,44.38 64.04,44.38 C64.04,44.38 61.76,42.22 62.002,40.726 C62.246,39.231 58.747,45.04 60.126,48.698 C60.927,50.824 63.605,55.699 68.063,58.782 C73.218,62.348 82.693,65.061 88.852,61.007 C89.906,60.313 91.333,55.037 91.333,55.037 C91.333,55.037 90.95,59.425 91.187,59.857 C91.773,60.925 102.491,51.955 98.379,41.873 C98.379,41.873 101.31,32.037 100.754,31.645 C100.585,31.526 99.885,30.944 99.786,31.084 C99.658,31.264 99.016,35.166 98.019,37.812 C96.834,40.952 94.24,49.942 84.732,54.037 C74.94,58.255 64.861,51.134 66.114,50.035 C67.368,48.937 74.33,56.823 84.254,52.709 C94.027,48.656 95.216,39.571 95.216,39.571 C95.216,39.571 92.551,38.94 90.605,39.091" id="Fill-17" fill="#002E6D"></path>
                    </g>
                    <g id="Group-21" transform="translate(106.000000, 69.086000)">
                        <mask id="mask-6" fill="white">
                            <use xlink:href="#path-5"></use>
                        </mask>
                        <g id="Clip-20"></g>
                        <polygon id="Fill-19" fill="#002E6D" mask="url(#mask-6)" points="-11.6221 29.1672 35.5409 52.9802 60.9579 2.6372 13.7949 -21.1748"></polygon>
                    </g>
                    <path d="M20.5835,115.1995 C20.5585,114.9125 20.5425,114.6215 20.5425,114.3285 C20.5425,108.3865 25.4135,103.5655 31.4225,103.5655 C31.4765,103.5655 31.5325,103.5715 31.5885,103.5715 C32.2745,98.2845 36.8395,94.1995 42.3715,94.1995 C47.1475,94.1995 51.2005,97.2435 52.6615,101.4795 C56.9295,101.8385 60.3105,105.2555 60.5565,109.5075 C60.9975,109.4555 61.4495,109.4245 61.9025,109.4245 C66.0915,109.4245 69.7265,111.7655 71.5425,115.1995 L20.5835,115.1995 Z" id="Fill-22" fill="#F3F2F2"></path>
                </g>
            </g>
        </g>
    </g>
</svg>