<?xml version="1.0" encoding="UTF-8"?>
<svg width="176px" height="152px" viewBox="0 0 176 152" version="1.1" xmlns="http://www.w3.org/2000/svg" xmlns:xlink="http://www.w3.org/1999/xlink">
    <title>atoms/img/ilustraciones/base/white/envíos_rápidos</title>
    <g id="UI-KIT" stroke="none" stroke-width="1" fill="none" fill-rule="evenodd">
        <g id="Correos_web_UIkit_54_Illustrations" transform="translate(-296.000000, -6560.000000)">
            <g id="Group" transform="translate(296.000000, 6544.000000)">
                <path d="M21.9094866,135.238376 C74.4014728,213.303209 196.507376,134.260312 173.038066,80.4077402 C157.460629,44.66282 131.108641,82.5503632 79.7854361,33.6668536 C20.2533193,-19.5588867 -30.583446,57.173542 21.9094866,135.238376 Z" id="Fill-1" fill="#FFFFFF"></path>
                <path d="M133,116.3617 L166.883,116.3617 C166.883,116.3317 166.89,116.3007 166.89,116.2747 C166.89,112.5617 163.84,109.5517 160.074,109.5517 C159.439,109.5517 158.82,109.6427 158.235,109.8057 C157.569,105.0047 153.392,101.2987 148.333,101.2987 C142.813,101.2987 138.335,105.7137 138.335,111.1577 C138.335,111.1757 138.339,111.1987 138.339,111.2217 C135.577,111.5327 133.385,113.6587 133,116.3617" id="Fill-3" fill="#F3F2F2" opacity="0.5"></path>
                <path d="M138.5788,116.3617 L172.4618,116.3617 C172.4618,116.3317 172.4688,116.3007 172.4688,116.2747 C172.4688,112.5617 169.4188,109.5517 165.6528,109.5517 C165.0178,109.5517 164.3988,109.6427 163.8138,109.8057 C163.1478,105.0047 158.9708,101.2987 153.9118,101.2987 C148.3918,101.2987 143.9138,105.7137 143.9138,111.1577 C143.9138,111.1757 143.9178,111.1987 143.9178,111.2217 C141.1558,111.5327 138.9638,113.6587 138.5788,116.3617" id="Fill-3" fill="#F3F2F2"></path>
                <polygon id="Fill-15" fill="#DACC92" points="73.911 127.273 144.296 127.273 144.296 66.225 73.911 66.225"></polygon>
                <polygon id="Fill-17" fill="#C4BDA4" points="73.911 68.914 144.296 68.914 144.296 66.225 73.911 66.225"></polygon>
                <polygon id="Fill-18" fill="#FFCD00" points="96 97 124 97 124 69 96 69"></polygon>
                <g transform="translate(101.000000, 74.000000)" fill="#002E6D" id="atoms/ico/24px/ico_correos">
                    <path d="M12.37515,7.274775 L9.00015,7.274775 L5.62515,7.274775 L5.62515,6.704775 L5.62515,6.134775 L9.00015,6.134775 L12.37515,6.134775 L12.37515,6.704775 L12.37515,7.274775 Z M10.12515,12.689025 C10.12515,12.059025 9.62115,11.548275 9.00015,11.548275 C8.3784,11.548275 7.87515,12.059025 7.87515,12.689025 C7.87515,13.318275 8.3784,13.829025 9.00015,13.829025 C9.62115,13.829025 10.12515,13.318275 10.12515,12.689025 L10.12515,12.689025 Z M9.00015,16.109775 C12.96765,16.109775 16.2579,13.136775 16.7964,9.268275 L15.65715,9.268275 C15.1239,12.504525 12.34515,14.969025 9.00015,14.969025 C7.7574,14.969025 6.75165,13.948275 6.75165,12.689025 C6.75165,11.429775 7.7574,10.409775 9.00015,10.409775 C10.2429,10.409775 11.25015,11.399775 11.25015,12.689025 C11.25015,12.940275 11.1999,13.178025 11.12565,13.404525 C11.5749,13.218525 11.9919,12.972525 12.37515,12.681525 C12.37515,10.799775 10.86315,9.269025 9.00015,9.269025 C7.1364,9.269025 5.62515,10.799775 5.62515,12.689025 C5.62515,14.577525 7.1364,16.109775 9.00015,16.109775 L9.00015,16.109775 Z M1.2144,9.268275 C1.5714,11.789025 3.08115,13.928775 5.1939,15.113775 C4.75665,14.411025 4.50015,13.581525 4.50015,12.689025 L4.50015,12.689025 L4.50015,9.268275 L1.2144,9.268275 Z M14.62515,8.128275 L18.00015,8.128275 C18.00015,13.166025 13.9704,17.249775 9.00015,17.249775 C4.0299,17.249775 0.00015,13.166025 0.00015,8.128275 L5.62515,8.128275 L5.62515,9.680025 C6.4494,8.730525 7.6539,8.128275 9.00015,8.128275 C11.14665,8.128275 12.93915,9.652275 13.3884,11.690775 C14.16165,10.715025 14.62515,9.476775 14.62515,8.128275 L14.62515,8.128275 Z M11.81265,1.856775 C13.05465,1.856775 14.06265,2.877525 14.06265,4.136775 L14.06265,5.277525 L12.93765,5.277525 L12.93765,4.136775 C12.93765,3.507525 12.43365,2.996775 11.81265,2.996775 C11.71215,2.996775 11.61615,3.014775 11.52315,3.039525 C11.70165,3.366525 11.81265,3.737025 11.81265,4.136775 L11.81265,5.277525 L10.68765,5.277525 L10.68765,4.136775 C10.68765,3.507525 10.18365,2.996775 9.56265,2.996775 L9.56265,5.277525 L8.43765,5.277525 L8.43765,2.996775 C7.8159,2.996775 7.31265,3.507525 7.31265,4.136775 L7.31265,5.277525 L6.18765,5.277525 L6.18765,4.136775 C6.18765,3.737025 6.2979,3.366525 6.47715,3.040275 C6.38415,3.014775 6.28815,2.996775 6.18765,2.996775 C5.5659,2.996775 5.06265,3.507525 5.06265,4.136775 L5.06265,5.277525 L3.93765,5.277525 L3.93765,4.136775 C3.93765,2.877525 4.9449,1.856775 6.18765,1.856775 C6.6009,1.856775 6.9864,1.972275 7.31865,2.169525 C7.6494,1.976025 8.02815,1.856775 8.43765,1.856775 C8.6289,1.856775 8.81115,1.889025 8.98815,1.934025 C9.1719,1.885275 9.3639,1.856775 9.56265,1.856775 C9.9744,1.856775 10.35465,1.976775 10.6869,2.172525 C11.01915,1.976775 11.4009,1.856775 11.81265,1.856775 L11.81265,1.856775 Z M9.2454,0.537525 L9.77565,0.537525 L9.77565,1.034775 L9.2454,1.034775 L9.2454,1.571775 L8.7549,1.571775 L8.7549,1.034775 L8.22465,1.034775 L8.22465,0.537525 L8.7549,0.537525 L8.7549,-0.000225 L9.2454,-0.000225 L9.2454,0.537525 Z" id="Fill-1"></path>
                </g>
                <path d="M20.4065,106.254 L56.9455,106.254 C58.1025,106.254 59.0405,105.316 59.0405,104.159 C59.0405,103.002 58.1025,102.064 56.9455,102.064 L20.4065,102.064 C19.2495,102.064 18.3115,103.002 18.3115,104.159 C18.3115,105.316 19.2495,106.254 20.4065,106.254" id="Fill-28" fill="#606060"></path>
                <path d="M24.9246,86.19 L61.4636,86.19 C62.6206,86.19 63.5586,85.252 63.5586,84.095 C63.5586,82.938 62.6206,82 61.4636,82 L24.9246,82 C23.7676,82 22.8296,82.938 22.8296,84.095 C22.8296,85.252 23.7676,86.19 24.9246,86.19" id="Fill-29" fill="#606060"></path>
                <path d="M2.095,96.2223 L38.634,96.2223 C39.791,96.2223 40.729,95.2843 40.729,94.1273 C40.729,92.9703 39.791,92.0323 38.634,92.0323 L2.095,92.0323 C0.938,92.0323 -3.16191517e-13,92.9703 -3.16191517e-13,94.1273 C-3.16191517e-13,95.2843 0.938,96.2223 2.095,96.2223" id="Fill-30" fill="#606060"></path>
                <path d="M84.8225,62.1966 C84.8475,61.9036 84.8645,61.6066 84.8645,61.3066 C84.8645,55.2376 79.8895,50.3136 73.7515,50.3136 C73.6975,50.3136 73.6395,50.3206 73.5825,50.3206 C72.8815,44.9206 68.2185,40.7476 62.5695,40.7476 C57.6905,40.7476 53.5515,43.8566 52.0595,48.1836 C47.6995,48.5496 44.2465,52.0406 43.9945,56.3836 C43.5455,56.3296 43.0825,56.2976 42.6205,56.2976 C38.3415,56.2976 34.6305,58.6906 32.7745,62.1966 L84.8225,62.1966 Z" id="Fill-31" fill="#F3F2F2"></path>
                <path d="M52.06,48.183 C47.7,48.549 44.247,52.04 43.995,56.383 L43.995,56.383 C43.545,56.33 43.083,56.297 42.62,56.297 L42.62,56.297 C38.342,56.297 34.63,58.691 32.774,62.197 L32.774,62.197 L84.822,62.197 C84.847,61.904 84.864,61.607 84.864,61.307 L84.864,61.307 C84.864,55.237 79.889,50.314 73.751,50.314 L73.751,50.314 C73.697,50.314 73.64,50.321 73.583,50.321 L73.583,50.321 C72.881,44.92 68.219,40.748 62.569,40.748 L62.569,40.748 C57.69,40.748 53.552,43.857 52.06,48.183 L52.06,48.183 Z" id="Clip-34" fill="#F3F2F2"></path>
                <path d="M75.9885,62.1966 C76.0135,61.9036 76.0305,61.6066 76.0305,61.3066 C76.0305,55.2376 71.0555,50.3136 64.9175,50.3136 C64.8635,50.3136 64.8055,50.3206 64.7485,50.3206 C64.0475,44.9206 59.3855,40.7476 53.7355,40.7476 C48.8565,40.7476 44.7175,43.8566 43.2255,48.1836 C38.8665,48.5496 35.4125,52.0406 35.1605,56.3836 C34.7115,56.3296 34.2495,56.2976 33.7865,56.2976 C29.5075,56.2976 25.7965,58.6906 23.9405,62.1966 L75.9885,62.1966 Z" id="Fill-36" fill="#F3F2F2" opacity="0.5"></path>
                <path d="M67.2605,62.1966 C67.2855,61.9036 67.3025,61.6066 67.3025,61.3066 C67.3025,55.2376 62.3275,50.3136 56.1895,50.3136 C56.1355,50.3136 56.0775,50.3206 56.0205,50.3206 C55.3195,44.9206 50.6575,40.7476 45.0075,40.7476 C40.1285,40.7476 35.9895,43.8566 34.4975,48.1836 C30.1385,48.5496 26.6845,52.0406 26.4325,56.3836 C25.9835,56.3296 25.5215,56.2976 25.0585,56.2976 C20.7795,56.2976 17.0685,58.6906 15.2125,62.1966 L67.2605,62.1966 Z" id="Fill-42" fill-opacity="0.3" fill="#F3F2F2"></path>
                <path d="M104.5856,138.4076 C104.6076,138.1486 104.6226,137.8866 104.6226,137.6226 C104.6226,132.2706 100.2356,127.9286 94.8226,127.9286 C94.7746,127.9286 94.7246,127.9346 94.6736,127.9346 C94.0556,123.1726 89.9436,119.4926 84.9616,119.4926 C80.6596,119.4926 77.0096,122.2346 75.6936,126.0506 C71.8496,126.3726 68.8036,129.4516 68.5816,133.2816 C68.1856,133.2336 67.7776,133.2056 67.3696,133.2056 C63.5966,133.2056 60.3236,135.3156 58.6866,138.4076 L104.5856,138.4076 Z" id="Fill-48" fill="#F3F2F2"></path>
                <path d="M96.7956,138.3276 C96.8176,138.0686 96.8326,137.8066 96.8326,137.5426 C96.8326,132.1906 92.4456,127.8486 87.0326,127.8486 C86.9846,127.8486 86.9346,127.8546 86.8836,127.8546 C86.2646,123.0926 82.1536,119.4126 77.1706,119.4126 C72.8686,119.4126 69.2186,122.1546 67.9026,125.9706 C64.0596,126.2926 61.0136,129.3716 60.7916,133.2016 C60.3956,133.1536 59.9876,133.1256 59.5796,133.1256 C55.8066,133.1256 52.5336,135.2356 50.8966,138.3276 L96.7956,138.3276 Z" id="Fill-54" fill="#F3F2F2" opacity="0.5"></path>
                <path d="M89.0988,138.3276 C89.1208,138.0686 89.1358,137.8066 89.1358,137.5426 C89.1358,132.1906 84.7488,127.8486 79.3358,127.8486 C79.2878,127.8486 79.2378,127.8546 79.1868,127.8546 C78.5678,123.0926 74.4568,119.4126 69.4738,119.4126 C65.1718,119.4126 61.5218,122.1546 60.2058,125.9706 C56.3628,126.2926 53.3168,129.3716 53.0948,133.2016 C52.6988,133.1536 52.2908,133.1256 51.8828,133.1256 C48.1098,133.1256 44.8368,135.2356 43.1998,138.3276 L89.0988,138.3276 Z" id="Fill-60" fill="#F3F2F2" opacity="0.3"></path>
                <path d="M75.694,126.05 C71.85,126.373 68.804,129.451 68.582,133.281 L68.582,133.281 C68.185,133.234 67.777,133.206 67.37,133.206 L67.37,133.206 C63.597,133.206 60.323,135.316 58.686,138.408 L58.686,138.408 L104.585,138.408 C104.608,138.149 104.622,137.887 104.622,137.623 L104.622,137.623 C104.622,132.271 100.236,127.929 94.823,127.929 L94.823,127.929 C94.775,127.929 94.724,127.935 94.674,127.935 L94.674,127.935 C94.055,123.172 89.944,119.493 84.962,119.493 L84.962,119.493 C80.66,119.493 77.009,122.234 75.694,126.05 L75.694,126.05 Z" id="Clip-52" fill="#F3F2F2"></path>
            </g>
        </g>
    </g>
</svg>